<svg id="visual" viewBox="0 0 900 600" width="900" height="600" xmlns="http://www.w3.org/2000/svg" xmlns:xlink="http://www.w3.org/1999/xlink" version="1.1"><g stroke-width="1" stroke-linejoin="bevel"><path d="M461 287L424 254.1L425 307.9Z" fill="#ffffff" stroke="#eee"></path><path d="M424 254.1L405 279.1L425 307.9Z" fill="#ffffff" stroke="#eee"></path><path d="M374 305L422 324.9L425 307.9Z" fill="#ffffff" stroke="#eee"></path><path d="M425 307.9L422 324.9L461 287Z" fill="#ffffff" stroke="#eee"></path><path d="M461 287L459 237.1L424 254.1Z" fill="#ffffff" stroke="#eee"></path><path d="M362 252.1L374 305L405 279.1Z" fill="#ffffff" stroke="#eee"></path><path d="M405 279.1L374 305L425 307.9Z" fill="#ffffff" stroke="#eee"></path><path d="M461 287L483 234.3L459 237.1Z" fill="#ffffff" stroke="#eee"></path><path d="M483 234.3L436 212.3L459 237.1Z" fill="#ffffff" stroke="#eee"></path><path d="M459 237.1L436 212.3L424 254.1Z" fill="#ffffff" stroke="#eee"></path><path d="M424 254.1L362 252.1L405 279.1Z" fill="#ffffff" stroke="#eee"></path><path d="M398 196.3L362 252.1L424 254.1Z" fill="#ffffff" stroke="#eee"></path><path d="M422 324.9L497 327.9L461 287Z" fill="#ffffff" stroke="#eee"></path><path d="M461 287L529 291L483 234.3Z" fill="#ffffff" stroke="#eee"></path><path d="M362 252.1L349 269L374 305Z" fill="#ffffff" stroke="#eee"></path><path d="M436 212.3L398 196.3L424 254.1Z" fill="#ffffff" stroke="#eee"></path><path d="M362 252.1L310 211.3L349 269Z" fill="#ffffff" stroke="#eee"></path><path d="M476 397.7L474 363.7L446 405.6Z" fill="#ffffff" stroke="#eee"></path><path d="M422 324.9L474 363.7L497 327.9Z" fill="#ffffff" stroke="#eee"></path><path d="M540 313.9L529 291L497 327.9Z" fill="#ffffff" stroke="#eee"></path><path d="M497 327.9L529 291L461 287Z" fill="#ffffff" stroke="#eee"></path><path d="M349 269L337 303.9L374 305Z" fill="#ffffff" stroke="#eee"></path><path d="M343 373.7L396 399.7L422 324.9Z" fill="#ffffff" stroke="#eee"></path><path d="M529 291L524 234.1L483 234.3Z" fill="#ffffff" stroke="#eee"></path><path d="M483 234.3L482 152.4L436 212.3Z" fill="#ffffff" stroke="#eee"></path><path d="M436 212.3L395 150.4L398 196.3Z" fill="#ffffff" stroke="#eee"></path><path d="M395 150.4L383 189.3L398 196.3Z" fill="#ffffff" stroke="#eee"></path><path d="M398 196.3L383 189.3L362 252.1Z" fill="#ffffff" stroke="#eee"></path><path d="M349 269L326 308L337 303.9Z" fill="#ffffff" stroke="#eee"></path><path d="M343 373.7L422 324.9L374 305Z" fill="#ffffff" stroke="#eee"></path><path d="M303 331.9L283 292.1L293 331.9Z" fill="#ffffff" stroke="#eee"></path><path d="M537 383.7L540 313.9L497 327.9Z" fill="#ffffff" stroke="#eee"></path><path d="M529 291L546 253.3L524 234.1Z" fill="#ffffff" stroke="#eee"></path><path d="M552 267L546 253.3L529 291Z" fill="#ffffff" stroke="#eee"></path><path d="M540 313.9L547 308L529 291Z" fill="#ffffff" stroke="#eee"></path><path d="M566 280.1L552 267L529 291Z" fill="#ffffff" stroke="#eee"></path><path d="M546 253.3L532 206.3L524 234.1Z" fill="#ffffff" stroke="#eee"></path><path d="M524 234.1L532 206.3L483 234.3Z" fill="#ffffff" stroke="#eee"></path><path d="M552 192.4L532 206.3L590 230.1Z" fill="#ffffff" stroke="#eee"></path><path d="M446 405.6L474 363.7L422 324.9Z" fill="#ffffff" stroke="#eee"></path><path d="M474 363.7L537 383.7L497 327.9Z" fill="#ffffff" stroke="#eee"></path><path d="M540 313.9L567 307.9L547 308Z" fill="#ffffff" stroke="#eee"></path><path d="M343 373.7L374 305L337 303.9Z" fill="#ffffff" stroke="#eee"></path><path d="M396 399.7L446 405.6L422 324.9Z" fill="#ffffff" stroke="#eee"></path><path d="M326 308L343 373.7L337 303.9Z" fill="#ffffff" stroke="#eee"></path><path d="M547 308L566 280.1L529 291Z" fill="#ffffff" stroke="#eee"></path><path d="M552 267L590 230.1L546 253.3Z" fill="#ffffff" stroke="#eee"></path><path d="M482 152.4L395 150.4L436 212.3Z" fill="#ffffff" stroke="#eee"></path><path d="M383 189.3L310 211.3L362 252.1Z" fill="#ffffff" stroke="#eee"></path><path d="M537 383.7L567 307.9L540 313.9Z" fill="#ffffff" stroke="#eee"></path><path d="M547 308L567 307.9L566 280.1Z" fill="#ffffff" stroke="#eee"></path><path d="M379 152.4L373 157.6L383 189.3Z" fill="#ffffff" stroke="#eee"></path><path d="M532 206.3L482 152.4L483 234.3Z" fill="#ffffff" stroke="#eee"></path><path d="M395 150.4L379 152.4L383 189.3Z" fill="#ffffff" stroke="#eee"></path><path d="M283 292.1L326 308L349 269Z" fill="#ffffff" stroke="#eee"></path><path d="M326 308L303 331.9L343 373.7Z" fill="#ffffff" stroke="#eee"></path><path d="M277 226.1L310 211.3L310 166.6Z" fill="#ffffff" stroke="#eee"></path><path d="M310 166.6L310 211.3L383 189.3Z" fill="#ffffff" stroke="#eee"></path><path d="M534 393.6L474 363.7L476 397.7Z" fill="#ffffff" stroke="#eee"></path><path d="M534 393.6L537 383.7L474 363.7Z" fill="#ffffff" stroke="#eee"></path><path d="M590 230.1L532 206.3L546 253.3Z" fill="#ffffff" stroke="#eee"></path><path d="M532 206.3L504 147.4L482 152.4Z" fill="#ffffff" stroke="#eee"></path><path d="M427 433.6L456 427.6L446 405.6Z" fill="#ffffff" stroke="#eee"></path><path d="M446 405.6L456 427.6L476 397.7Z" fill="#ffffff" stroke="#eee"></path><path d="M283 292.1L303 331.9L326 308Z" fill="#ffffff" stroke="#eee"></path><path d="M303 331.9L322 384.7L343 373.7Z" fill="#ffffff" stroke="#eee"></path><path d="M277 226.1L283 292.1L349 269Z" fill="#ffffff" stroke="#eee"></path><path d="M552 192.4L504 147.4L532 206.3Z" fill="#ffffff" stroke="#eee"></path><path d="M482 152.4L434 119.7L395 150.4Z" fill="#ffffff" stroke="#eee"></path><path d="M523 492.3L534 393.6L476 397.7Z" fill="#ffffff" stroke="#eee"></path><path d="M634 354.7L638 309.9L567 307.9Z" fill="#ffffff" stroke="#eee"></path><path d="M293 331.9L322 384.7L303 331.9Z" fill="#ffffff" stroke="#eee"></path><path d="M366 429.6L376 431.4L396 399.7Z" fill="#ffffff" stroke="#eee"></path><path d="M396 399.7L427 433.6L446 405.6Z" fill="#ffffff" stroke="#eee"></path><path d="M376 431.4L427 433.6L396 399.7Z" fill="#ffffff" stroke="#eee"></path><path d="M497 132.6L471 126.6L482 152.4Z" fill="#ffffff" stroke="#eee"></path><path d="M395 150.4L363 67.9L379 152.4Z" fill="#ffffff" stroke="#eee"></path><path d="M471 126.6L434 119.7L482 152.4Z" fill="#ffffff" stroke="#eee"></path><path d="M366 429.6L396 399.7L343 373.7Z" fill="#ffffff" stroke="#eee"></path><path d="M504 147.4L497 132.6L482 152.4Z" fill="#ffffff" stroke="#eee"></path><path d="M559 119.7L497 132.6L504 147.4Z" fill="#ffffff" stroke="#eee"></path><path d="M322 384.7L366 429.6L343 373.7Z" fill="#ffffff" stroke="#eee"></path><path d="M566 280.1L590 230.1L552 267Z" fill="#ffffff" stroke="#eee"></path><path d="M552 192.4L559 119.7L504 147.4Z" fill="#ffffff" stroke="#eee"></path><path d="M638 309.9L590 230.1L566 280.1Z" fill="#ffffff" stroke="#eee"></path><path d="M310 166.6L383 189.3L373 157.6Z" fill="#ffffff" stroke="#eee"></path><path d="M310 211.3L277 226.1L349 269Z" fill="#ffffff" stroke="#eee"></path><path d="M428 471.4L435 447.4L427 433.6Z" fill="#ffffff" stroke="#eee"></path><path d="M427 433.6L435 447.4L456 427.6Z" fill="#ffffff" stroke="#eee"></path><path d="M598 437.4L593 421.7L550 494.4Z" fill="#ffffff" stroke="#eee"></path><path d="M428 471.4L427 433.6L376 431.4Z" fill="#ffffff" stroke="#eee"></path><path d="M279 145.4L310 166.6L278 141.4Z" fill="#ffffff" stroke="#eee"></path><path d="M300 83.7L310 166.6L373 157.6Z" fill="#ffffff" stroke="#eee"></path><path d="M471 126.6L442 111.6L434 119.7Z" fill="#ffffff" stroke="#eee"></path><path d="M278 141.4L310 166.6L300 83.7Z" fill="#ffffff" stroke="#eee"></path><path d="M461 52.7L442 111.6L471 126.6Z" fill="#ffffff" stroke="#eee"></path><path d="M590 230.1L593 211.3L552 192.4Z" fill="#ffffff" stroke="#eee"></path><path d="M244 202.4L255 230.3L277 226.1Z" fill="#ffffff" stroke="#eee"></path><path d="M277 226.1L243 270.1L283 292.1Z" fill="#ffffff" stroke="#eee"></path><path d="M283 292.1L235 288L293 331.9Z" fill="#ffffff" stroke="#eee"></path><path d="M410 485.3L428 471.4L376 431.4Z" fill="#ffffff" stroke="#eee"></path><path d="M435 447.4L477 499.4L456 427.6Z" fill="#ffffff" stroke="#eee"></path><path d="M255 230.3L243 270.1L277 226.1Z" fill="#ffffff" stroke="#eee"></path><path d="M232 382.7L296 418.6L322 384.7Z" fill="#ffffff" stroke="#eee"></path><path d="M268 433.6L296 418.6L231 395.6Z" fill="#ffffff" stroke="#eee"></path><path d="M322 384.7L311 440.4L366 429.6Z" fill="#ffffff" stroke="#eee"></path><path d="M347 496.3L410 485.3L376 431.4Z" fill="#ffffff" stroke="#eee"></path><path d="M593 211.3L590 162.4L552 192.4Z" fill="#ffffff" stroke="#eee"></path><path d="M497 132.6L522 88.7L471 126.6Z" fill="#ffffff" stroke="#eee"></path><path d="M230 271L235 288L243 270.1Z" fill="#ffffff" stroke="#eee"></path><path d="M243 270.1L235 288L283 292.1Z" fill="#ffffff" stroke="#eee"></path><path d="M296 418.6L311 440.4L322 384.7Z" fill="#ffffff" stroke="#eee"></path><path d="M255 230.3L230 271L243 270.1Z" fill="#ffffff" stroke="#eee"></path><path d="M590 162.4L559 119.7L552 192.4Z" fill="#ffffff" stroke="#eee"></path><path d="M590 162.4L590 149.4L559 119.7Z" fill="#ffffff" stroke="#eee"></path><path d="M619 163.6L590 149.4L590 162.4Z" fill="#ffffff" stroke="#eee"></path><path d="M310 166.6L244 202.4L277 226.1Z" fill="#ffffff" stroke="#eee"></path><path d="M255 230.3L207 239.1L230 271Z" fill="#ffffff" stroke="#eee"></path><path d="M373 157.6L379 152.4L363 67.9Z" fill="#ffffff" stroke="#eee"></path><path d="M310 166.6L279 145.4L244 202.4Z" fill="#ffffff" stroke="#eee"></path><path d="M347 496.3L376 431.4L366 429.6Z" fill="#ffffff" stroke="#eee"></path><path d="M523 492.3L476 397.7L456 427.6Z" fill="#ffffff" stroke="#eee"></path><path d="M634 354.7L567 307.9L537 383.7Z" fill="#ffffff" stroke="#eee"></path><path d="M567 307.9L638 309.9L566 280.1Z" fill="#ffffff" stroke="#eee"></path><path d="M590 230.1L676 245.3L593 211.3Z" fill="#ffffff" stroke="#eee"></path><path d="M593 211.3L619 163.6L590 162.4Z" fill="#ffffff" stroke="#eee"></path><path d="M363 67.9L395 150.4L434 119.7Z" fill="#ffffff" stroke="#eee"></path><path d="M279 145.4L200 173.4L244 202.4Z" fill="#ffffff" stroke="#eee"></path><path d="M559 119.7L522 88.7L497 132.6Z" fill="#ffffff" stroke="#eee"></path><path d="M373 56.7L363 67.9L434 119.7Z" fill="#ffffff" stroke="#eee"></path><path d="M477 499.4L435 447.4L428 471.4Z" fill="#ffffff" stroke="#eee"></path><path d="M534 393.6L593 421.7L537 383.7Z" fill="#ffffff" stroke="#eee"></path><path d="M593 421.7L634 354.7L537 383.7Z" fill="#ffffff" stroke="#eee"></path><path d="M684 230.1L619 163.6L593 211.3Z" fill="#ffffff" stroke="#eee"></path><path d="M579 76.7L552 92.6L559 119.7Z" fill="#ffffff" stroke="#eee"></path><path d="M559 119.7L552 92.6L522 88.7Z" fill="#ffffff" stroke="#eee"></path><path d="M579 76.7L559 119.7L603 73.7Z" fill="#ffffff" stroke="#eee"></path><path d="M410 485.3L477 499.4L428 471.4Z" fill="#ffffff" stroke="#eee"></path><path d="M461 52.7L471 126.6L522 88.7Z" fill="#ffffff" stroke="#eee"></path><path d="M373 56.7L434 119.7L442 111.6Z" fill="#ffffff" stroke="#eee"></path><path d="M296 418.6L268 433.6L311 440.4Z" fill="#ffffff" stroke="#eee"></path><path d="M311 440.4L347 496.3L366 429.6Z" fill="#ffffff" stroke="#eee"></path><path d="M232 382.7L322 384.7L293 331.9Z" fill="#ffffff" stroke="#eee"></path><path d="M232 382.7L293 331.9L206 308Z" fill="#ffffff" stroke="#eee"></path><path d="M206 308L293 331.9L235 288Z" fill="#ffffff" stroke="#eee"></path><path d="M634 354.7L657 321L638 309.9Z" fill="#ffffff" stroke="#eee"></path><path d="M638 309.9L676 245.3L590 230.1Z" fill="#ffffff" stroke="#eee"></path><path d="M653 350.9L657 321L634 354.7Z" fill="#ffffff" stroke="#eee"></path><path d="M550 494.4L593 421.7L534 393.6Z" fill="#ffffff" stroke="#eee"></path><path d="M593 421.7L652 387.7L634 354.7Z" fill="#ffffff" stroke="#eee"></path><path d="M207 239.1L206 308L230 271Z" fill="#ffffff" stroke="#eee"></path><path d="M230 271L206 308L235 288Z" fill="#ffffff" stroke="#eee"></path><path d="M477 499.4L523 492.3L456 427.6Z" fill="#ffffff" stroke="#eee"></path><path d="M469 21.9L461 52.7L522 88.7Z" fill="#ffffff" stroke="#eee"></path><path d="M194 193.3L207 239.1L244 202.4Z" fill="#ffffff" stroke="#eee"></path><path d="M244 202.4L207 239.1L255 230.3Z" fill="#ffffff" stroke="#eee"></path><path d="M652 387.7L653 350.9L634 354.7Z" fill="#ffffff" stroke="#eee"></path><path d="M701 361.7L664 305L657 321Z" fill="#ffffff" stroke="#eee"></path><path d="M657 321L664 305L638 309.9Z" fill="#ffffff" stroke="#eee"></path><path d="M461 52.7L373 56.7L442 111.6Z" fill="#ffffff" stroke="#eee"></path><path d="M363 67.9L300 83.7L373 157.6Z" fill="#ffffff" stroke="#eee"></path><path d="M269 457.4L347 496.3L311 440.4Z" fill="#ffffff" stroke="#eee"></path><path d="M507 543.1L491 511.3L483 560.1Z" fill="#ffffff" stroke="#eee"></path><path d="M213 400.7L231 395.6L232 382.7Z" fill="#ffffff" stroke="#eee"></path><path d="M232 382.7L231 395.6L296 418.6Z" fill="#ffffff" stroke="#eee"></path><path d="M483 560.1L477 499.4L410 485.3Z" fill="#ffffff" stroke="#eee"></path><path d="M477 499.4L491 511.3L523 492.3Z" fill="#ffffff" stroke="#eee"></path><path d="M301 51.9L300 83.7L363 67.9Z" fill="#ffffff" stroke="#eee"></path><path d="M200 173.4L194 193.3L244 202.4Z" fill="#ffffff" stroke="#eee"></path><path d="M347 496.3L372 512.3L410 485.3Z" fill="#ffffff" stroke="#eee"></path><path d="M300 83.7L271 104.6L278 141.4Z" fill="#ffffff" stroke="#eee"></path><path d="M250 483.4L269 457.4L243 479.3Z" fill="#ffffff" stroke="#eee"></path><path d="M268 433.6L269 457.4L311 440.4Z" fill="#ffffff" stroke="#eee"></path><path d="M347 496.3L349 573.1L372 512.3Z" fill="#ffffff" stroke="#eee"></path><path d="M598 437.4L652 387.7L593 421.7Z" fill="#ffffff" stroke="#eee"></path><path d="M653 350.9L701 361.7L657 321Z" fill="#ffffff" stroke="#eee"></path><path d="M523 492.3L550 494.4L534 393.6Z" fill="#ffffff" stroke="#eee"></path><path d="M598 437.4L615 462.6L652 387.7Z" fill="#ffffff" stroke="#eee"></path><path d="M555 533.3L550 494.4L523 492.3Z" fill="#ffffff" stroke="#eee"></path><path d="M684 230.1L676 245.3L708 277.1Z" fill="#ffffff" stroke="#eee"></path><path d="M664 305L676 245.3L638 309.9Z" fill="#ffffff" stroke="#eee"></path><path d="M206 308L195 354.9L232 382.7Z" fill="#ffffff" stroke="#eee"></path><path d="M231 395.6L213 400.7L268 433.6Z" fill="#ffffff" stroke="#eee"></path><path d="M159 333.9L195 354.9L206 308Z" fill="#ffffff" stroke="#eee"></path><path d="M603 73.7L559 119.7L590 149.4Z" fill="#ffffff" stroke="#eee"></path><path d="M552 92.6L578 68.9L522 88.7Z" fill="#ffffff" stroke="#eee"></path><path d="M578 68.9L579 76.7L603 73.7Z" fill="#ffffff" stroke="#eee"></path><path d="M191 378.9L213 400.7L232 382.7Z" fill="#ffffff" stroke="#eee"></path><path d="M550 494.4L604 467.6L598 437.4Z" fill="#ffffff" stroke="#eee"></path><path d="M200 173.4L279 145.4L278 141.4Z" fill="#ffffff" stroke="#eee"></path><path d="M116 268.1L159 333.9L206 308Z" fill="#ffffff" stroke="#eee"></path><path d="M708 277.1L676 245.3L664 305Z" fill="#ffffff" stroke="#eee"></path><path d="M676 245.3L684 230.1L593 211.3Z" fill="#ffffff" stroke="#eee"></path><path d="M646 114.6L590 149.4L619 163.6Z" fill="#ffffff" stroke="#eee"></path><path d="M579 76.7L578 68.9L552 92.6Z" fill="#ffffff" stroke="#eee"></path><path d="M198 116.6L200 173.4L278 141.4Z" fill="#ffffff" stroke="#eee"></path><path d="M615 468.4L615 462.6L604 467.6Z" fill="#ffffff" stroke="#eee"></path><path d="M604 467.6L615 462.6L598 437.4Z" fill="#ffffff" stroke="#eee"></path><path d="M691 208.4L656 151.4L619 163.6Z" fill="#ffffff" stroke="#eee"></path><path d="M555 533.3L615 468.4L604 467.6Z" fill="#ffffff" stroke="#eee"></path><path d="M699 445.6L692 370.9L652 387.7Z" fill="#ffffff" stroke="#eee"></path><path d="M482 6.9L469 21.9L522 88.7Z" fill="#ffffff" stroke="#eee"></path><path d="M461 52.7L434 4.9L373 56.7Z" fill="#ffffff" stroke="#eee"></path><path d="M159 333.9L191 378.9L195 354.9Z" fill="#ffffff" stroke="#eee"></path><path d="M195 354.9L191 378.9L232 382.7Z" fill="#ffffff" stroke="#eee"></path><path d="M243 479.3L269 457.4L268 433.6Z" fill="#ffffff" stroke="#eee"></path><path d="M300 83.7L279 52.7L271 104.6Z" fill="#ffffff" stroke="#eee"></path><path d="M271 104.6L198 116.6L278 141.4Z" fill="#ffffff" stroke="#eee"></path><path d="M322 34.9L301 51.9L363 67.9Z" fill="#ffffff" stroke="#eee"></path><path d="M322 34.9L363 67.9L373 56.7Z" fill="#ffffff" stroke="#eee"></path><path d="M705 210.3L691 208.4L684 230.1Z" fill="#ffffff" stroke="#eee"></path><path d="M684 230.1L691 208.4L619 163.6Z" fill="#ffffff" stroke="#eee"></path><path d="M646 114.6L603 73.7L590 149.4Z" fill="#ffffff" stroke="#eee"></path><path d="M533 0L482 6.9L522 88.7Z" fill="#ffffff" stroke="#eee"></path><path d="M682 116.6L646 114.6L656 151.4Z" fill="#ffffff" stroke="#eee"></path><path d="M656 151.4L646 114.6L619 163.6Z" fill="#ffffff" stroke="#eee"></path><path d="M329 0L322 34.9L373 56.7Z" fill="#ffffff" stroke="#eee"></path><path d="M483 560.1L491 511.3L477 499.4Z" fill="#ffffff" stroke="#eee"></path><path d="M491 511.3L507 543.1L523 492.3Z" fill="#ffffff" stroke="#eee"></path><path d="M550 494.4L555 533.3L604 467.6Z" fill="#ffffff" stroke="#eee"></path><path d="M243 479.3L268 433.6L188 440.6Z" fill="#ffffff" stroke="#eee"></path><path d="M269 457.4L280 527.3L347 496.3Z" fill="#ffffff" stroke="#eee"></path><path d="M682 450.4L652 387.7L615 462.6Z" fill="#ffffff" stroke="#eee"></path><path d="M652 387.7L692 370.9L653 350.9Z" fill="#ffffff" stroke="#eee"></path><path d="M243 479.3L251 485.3L250 483.4Z" fill="#ffffff" stroke="#eee"></path><path d="M250 483.4L251 485.3L269 457.4Z" fill="#ffffff" stroke="#eee"></path><path d="M430 600L483 560.1L410 485.3Z" fill="#ffffff" stroke="#eee"></path><path d="M701 361.7L708 277.1L664 305Z" fill="#ffffff" stroke="#eee"></path><path d="M188 440.6L268 433.6L213 400.7Z" fill="#ffffff" stroke="#eee"></path><path d="M271 0L279 52.7L301 51.9Z" fill="#ffffff" stroke="#eee"></path><path d="M301 51.9L279 52.7L300 83.7Z" fill="#ffffff" stroke="#eee"></path><path d="M482 6.9L434 4.9L469 21.9Z" fill="#ffffff" stroke="#eee"></path><path d="M469 21.9L434 4.9L461 52.7Z" fill="#ffffff" stroke="#eee"></path><path d="M200 173.4L171 189.3L194 193.3Z" fill="#ffffff" stroke="#eee"></path><path d="M194 193.3L163 207.4L207 239.1Z" fill="#ffffff" stroke="#eee"></path><path d="M171 115.6L171 189.3L200 173.4Z" fill="#ffffff" stroke="#eee"></path><path d="M578 29.9L522 88.7L578 68.9Z" fill="#ffffff" stroke="#eee"></path><path d="M127 328L159 333.9L116 268.1Z" fill="#ffffff" stroke="#eee"></path><path d="M157 397.7L188 440.6L213 400.7Z" fill="#ffffff" stroke="#eee"></path><path d="M741 406.6L701 361.7L692 370.9Z" fill="#ffffff" stroke="#eee"></path><path d="M692 370.9L701 361.7L653 350.9Z" fill="#ffffff" stroke="#eee"></path><path d="M171 189.3L163 207.4L194 193.3Z" fill="#ffffff" stroke="#eee"></path><path d="M507 543.1L555 533.3L523 492.3Z" fill="#ffffff" stroke="#eee"></path><path d="M729 220.3L705 210.3L684 230.1Z" fill="#ffffff" stroke="#eee"></path><path d="M691 208.4L705 210.3L656 151.4Z" fill="#ffffff" stroke="#eee"></path><path d="M482 6.9L424 0L434 4.9Z" fill="#ffffff" stroke="#eee"></path><path d="M434 4.9L416 0L373 56.7Z" fill="#ffffff" stroke="#eee"></path><path d="M424 0L416 0L434 4.9Z" fill="#ffffff" stroke="#eee"></path><path d="M430 600L410 485.3L372 512.3Z" fill="#ffffff" stroke="#eee"></path><path d="M507 543.1L548 576.1L555 533.3Z" fill="#ffffff" stroke="#eee"></path><path d="M199 90.7L198 116.6L271 104.6Z" fill="#ffffff" stroke="#eee"></path><path d="M171 189.3L144 186.3L163 207.4Z" fill="#ffffff" stroke="#eee"></path><path d="M593 0L578 29.9L633 0Z" fill="#ffffff" stroke="#eee"></path><path d="M603 73.7L578 29.9L578 68.9Z" fill="#ffffff" stroke="#eee"></path><path d="M246 595.1L280 527.3L202 565.1Z" fill="#ffffff" stroke="#eee"></path><path d="M251 485.3L280 527.3L269 457.4Z" fill="#ffffff" stroke="#eee"></path><path d="M157 397.7L213 400.7L191 378.9Z" fill="#ffffff" stroke="#eee"></path><path d="M243 479.3L202 565.1L251 485.3Z" fill="#ffffff" stroke="#eee"></path><path d="M578 29.9L533 0L522 88.7Z" fill="#ffffff" stroke="#eee"></path><path d="M482 6.9L533 0L424 0Z" fill="#ffffff" stroke="#eee"></path><path d="M705 210.3L682 116.6L656 151.4Z" fill="#ffffff" stroke="#eee"></path><path d="M646 114.6L660 65.9L603 73.7Z" fill="#ffffff" stroke="#eee"></path><path d="M416 0L329 0L373 56.7Z" fill="#ffffff" stroke="#eee"></path><path d="M322 34.9L271 0L301 51.9Z" fill="#ffffff" stroke="#eee"></path><path d="M241 31.9L199 90.7L271 104.6Z" fill="#ffffff" stroke="#eee"></path><path d="M159 333.9L157 397.7L191 378.9Z" fill="#ffffff" stroke="#eee"></path><path d="M615 468.4L682 450.4L615 462.6Z" fill="#ffffff" stroke="#eee"></path><path d="M675 505.3L682 450.4L615 468.4Z" fill="#ffffff" stroke="#eee"></path><path d="M329 0L323 0L322 34.9Z" fill="#ffffff" stroke="#eee"></path><path d="M708 277.1L729 220.3L684 230.1Z" fill="#ffffff" stroke="#eee"></path><path d="M762 137.4L705 101.6L682 116.6Z" fill="#ffffff" stroke="#eee"></path><path d="M752 275L729 220.3L708 277.1Z" fill="#ffffff" stroke="#eee"></path><path d="M185 92.6L199 90.7L179 80.7Z" fill="#ffffff" stroke="#eee"></path><path d="M171 115.6L144 186.3L171 189.3Z" fill="#ffffff" stroke="#eee"></path><path d="M344 575.1L349 573.1L347 496.3Z" fill="#ffffff" stroke="#eee"></path><path d="M171 115.6L200 173.4L198 116.6Z" fill="#ffffff" stroke="#eee"></path><path d="M116 268.1L206 308L207 239.1Z" fill="#ffffff" stroke="#eee"></path><path d="M159 333.9L106 376.7L157 397.7Z" fill="#ffffff" stroke="#eee"></path><path d="M578 29.9L556 0L533 0Z" fill="#ffffff" stroke="#eee"></path><path d="M593 0L556 0L578 29.9Z" fill="#ffffff" stroke="#eee"></path><path d="M280 527.3L344 575.1L347 496.3Z" fill="#ffffff" stroke="#eee"></path><path d="M349 573.1L372 583.1L372 512.3Z" fill="#ffffff" stroke="#eee"></path><path d="M344 575.1L372 583.1L349 573.1Z" fill="#ffffff" stroke="#eee"></path><path d="M121 328.9L127 328L116 268.1Z" fill="#ffffff" stroke="#eee"></path><path d="M185 92.6L171 115.6L198 116.6Z" fill="#ffffff" stroke="#eee"></path><path d="M199 90.7L185 92.6L198 116.6Z" fill="#ffffff" stroke="#eee"></path><path d="M241 31.9L271 104.6L279 52.7Z" fill="#ffffff" stroke="#eee"></path><path d="M685 63.9L660 65.9L682 116.6Z" fill="#ffffff" stroke="#eee"></path><path d="M682 116.6L660 65.9L646 114.6Z" fill="#ffffff" stroke="#eee"></path><path d="M682 450.4L699 445.6L652 387.7Z" fill="#ffffff" stroke="#eee"></path><path d="M701 361.7L752 275L708 277.1Z" fill="#ffffff" stroke="#eee"></path><path d="M717 443.4L699 445.6L675 505.3Z" fill="#ffffff" stroke="#eee"></path><path d="M271 0L241 31.9L279 52.7Z" fill="#ffffff" stroke="#eee"></path><path d="M125 405.6L173 458.4L157 397.7Z" fill="#ffffff" stroke="#eee"></path><path d="M157 397.7L173 458.4L188 440.6Z" fill="#ffffff" stroke="#eee"></path><path d="M188 440.6L173 458.4L243 479.3Z" fill="#ffffff" stroke="#eee"></path><path d="M280 527.3L303 600L344 575.1Z" fill="#ffffff" stroke="#eee"></path><path d="M116 268.1L207 239.1L163 207.4Z" fill="#ffffff" stroke="#eee"></path><path d="M106 376.7L125 405.6L157 397.7Z" fill="#ffffff" stroke="#eee"></path><path d="M526 589.1L548 576.1L507 543.1Z" fill="#ffffff" stroke="#eee"></path><path d="M667 534.3L675 505.3L615 468.4Z" fill="#ffffff" stroke="#eee"></path><path d="M526 589.1L507 543.1L483 560.1Z" fill="#ffffff" stroke="#eee"></path><path d="M103 218.1L116 268.1L163 207.4Z" fill="#ffffff" stroke="#eee"></path><path d="M776 360.7L752 275L701 361.7Z" fill="#ffffff" stroke="#eee"></path><path d="M397 600L430 600L372 583.1Z" fill="#ffffff" stroke="#eee"></path><path d="M372 583.1L430 600L372 512.3Z" fill="#ffffff" stroke="#eee"></path><path d="M303 600L397 600L372 583.1Z" fill="#ffffff" stroke="#eee"></path><path d="M510 600L526 589.1L483 560.1Z" fill="#ffffff" stroke="#eee"></path><path d="M430 600L476 600L483 560.1Z" fill="#ffffff" stroke="#eee"></path><path d="M633 0L578 29.9L603 73.7Z" fill="#ffffff" stroke="#eee"></path><path d="M131 116.7L119 186.3L144 186.3Z" fill="#ffffff" stroke="#eee"></path><path d="M144 186.3L103 218.1L163 207.4Z" fill="#ffffff" stroke="#eee"></path><path d="M185 92.6L179 80.7L171 115.6Z" fill="#ffffff" stroke="#eee"></path><path d="M241 31.9L179 80.7L199 90.7Z" fill="#ffffff" stroke="#eee"></path><path d="M699 445.6L725 421.6L692 370.9Z" fill="#ffffff" stroke="#eee"></path><path d="M323 0L271 0L322 34.9Z" fill="#ffffff" stroke="#eee"></path><path d="M241 31.9L196 0L179 80.7Z" fill="#ffffff" stroke="#eee"></path><path d="M762 137.4L705 210.3L729 220.3Z" fill="#ffffff" stroke="#eee"></path><path d="M762 137.4L682 116.6L705 210.3Z" fill="#ffffff" stroke="#eee"></path><path d="M660 65.9L633 0L603 73.7Z" fill="#ffffff" stroke="#eee"></path><path d="M675 505.3L699 445.6L682 450.4Z" fill="#ffffff" stroke="#eee"></path><path d="M699 445.6L717 443.4L725 421.6Z" fill="#ffffff" stroke="#eee"></path><path d="M526 589.1L533 600L548 576.1Z" fill="#ffffff" stroke="#eee"></path><path d="M476 600L510 600L483 560.1Z" fill="#ffffff" stroke="#eee"></path><path d="M131 116.7L144 186.3L171 115.6Z" fill="#ffffff" stroke="#eee"></path><path d="M667 534.3L555 533.3L607 587.1Z" fill="#ffffff" stroke="#eee"></path><path d="M667 534.3L615 468.4L555 533.3Z" fill="#ffffff" stroke="#eee"></path><path d="M752 275L760 228.1L729 220.3Z" fill="#ffffff" stroke="#eee"></path><path d="M697 71.7L685 63.9L682 116.6Z" fill="#ffffff" stroke="#eee"></path><path d="M771 487.4L741 406.6L725 421.6Z" fill="#ffffff" stroke="#eee"></path><path d="M725 421.6L741 406.6L692 370.9Z" fill="#ffffff" stroke="#eee"></path><path d="M752 275L804 277L760 228.1Z" fill="#ffffff" stroke="#eee"></path><path d="M106 376.7L159 333.9L127 328Z" fill="#ffffff" stroke="#eee"></path><path d="M106 376.7L127 328L121 328.9Z" fill="#ffffff" stroke="#eee"></path><path d="M510 600L533 600L526 589.1Z" fill="#ffffff" stroke="#eee"></path><path d="M119 186.3L103 218.1L144 186.3Z" fill="#ffffff" stroke="#eee"></path><path d="M116 268.1L98 326L121 328.9Z" fill="#ffffff" stroke="#eee"></path><path d="M693 51.7L697 71.7L714 27.9Z" fill="#ffffff" stroke="#eee"></path><path d="M705 101.6L697 71.7L682 116.6Z" fill="#ffffff" stroke="#eee"></path><path d="M684 0L633 0L660 65.9Z" fill="#ffffff" stroke="#eee"></path><path d="M83 310.9L98 326L116 268.1Z" fill="#ffffff" stroke="#eee"></path><path d="M98 326L106 376.7L121 328.9Z" fill="#ffffff" stroke="#eee"></path><path d="M179 80.7L131 116.7L171 115.6Z" fill="#ffffff" stroke="#eee"></path><path d="M79 198.3L72 245.1L103 218.1Z" fill="#ffffff" stroke="#eee"></path><path d="M111 109.6L131 116.7L142 43.9Z" fill="#ffffff" stroke="#eee"></path><path d="M693 51.7L660 65.9L685 63.9Z" fill="#ffffff" stroke="#eee"></path><path d="M607 587.1L555 533.3L548 576.1Z" fill="#ffffff" stroke="#eee"></path><path d="M675 505.3L762 493.3L717 443.4Z" fill="#ffffff" stroke="#eee"></path><path d="M775 367.9L701 361.7L741 406.6Z" fill="#ffffff" stroke="#eee"></path><path d="M292 600L303 600L280 527.3Z" fill="#ffffff" stroke="#eee"></path><path d="M344 575.1L303 600L372 583.1Z" fill="#ffffff" stroke="#eee"></path><path d="M697 71.7L693 51.7L685 63.9Z" fill="#ffffff" stroke="#eee"></path><path d="M714 27.9L697 71.7L749 42.9Z" fill="#ffffff" stroke="#eee"></path><path d="M246 595.1L292 600L280 527.3Z" fill="#ffffff" stroke="#eee"></path><path d="M160 500.4L243 479.3L173 458.4Z" fill="#ffffff" stroke="#eee"></path><path d="M71 463.4L173 458.4L125 405.6Z" fill="#ffffff" stroke="#eee"></path><path d="M71 463.4L160 500.4L173 458.4Z" fill="#ffffff" stroke="#eee"></path><path d="M72 245.1L83 310.9L116 268.1Z" fill="#ffffff" stroke="#eee"></path><path d="M44 381.7L76 398.7L106 376.7Z" fill="#ffffff" stroke="#eee"></path><path d="M775 367.9L822 395.6L783 365.7Z" fill="#ffffff" stroke="#eee"></path><path d="M775 367.9L776 360.7L701 361.7Z" fill="#ffffff" stroke="#eee"></path><path d="M596 600L607 587.1L548 576.1Z" fill="#ffffff" stroke="#eee"></path><path d="M783 365.7L822 395.6L798 360.9Z" fill="#ffffff" stroke="#eee"></path><path d="M607 587.1L644 578.1L667 534.3Z" fill="#ffffff" stroke="#eee"></path><path d="M533 600L596 600L548 576.1Z" fill="#ffffff" stroke="#eee"></path><path d="M789 167.6L729 220.3L760 228.1Z" fill="#ffffff" stroke="#eee"></path><path d="M789 167.6L762 137.4L729 220.3Z" fill="#ffffff" stroke="#eee"></path><path d="M596 600L599 600L607 587.1Z" fill="#ffffff" stroke="#eee"></path><path d="M775 367.9L783 365.7L776 360.7Z" fill="#ffffff" stroke="#eee"></path><path d="M815 333L804 277L752 275Z" fill="#ffffff" stroke="#eee"></path><path d="M798 360.9L822 395.6L816 353.7Z" fill="#ffffff" stroke="#eee"></path><path d="M271 0L204 0L241 31.9Z" fill="#ffffff" stroke="#eee"></path><path d="M79 198.3L103 218.1L119 186.3Z" fill="#ffffff" stroke="#eee"></path><path d="M103 218.1L72 245.1L116 268.1Z" fill="#ffffff" stroke="#eee"></path><path d="M111 109.6L79 198.3L119 186.3Z" fill="#ffffff" stroke="#eee"></path><path d="M111 109.6L119 186.3L131 116.7Z" fill="#ffffff" stroke="#eee"></path><path d="M662 600L644 578.1L607 587.1Z" fill="#ffffff" stroke="#eee"></path><path d="M775 367.9L741 406.6L822 395.6Z" fill="#ffffff" stroke="#eee"></path><path d="M142 43.9L131 116.7L179 80.7Z" fill="#ffffff" stroke="#eee"></path><path d="M202 565.1L280 527.3L251 485.3Z" fill="#ffffff" stroke="#eee"></path><path d="M180 549.3L202 565.1L243 479.3Z" fill="#ffffff" stroke="#eee"></path><path d="M204 0L196 0L241 31.9Z" fill="#ffffff" stroke="#eee"></path><path d="M176 581.1L180 549.3L115 572.1Z" fill="#ffffff" stroke="#eee"></path><path d="M160 500.4L180 549.3L243 479.3Z" fill="#ffffff" stroke="#eee"></path><path d="M815 333L752 275L776 360.7Z" fill="#ffffff" stroke="#eee"></path><path d="M182 600L241 600L202 565.1Z" fill="#ffffff" stroke="#eee"></path><path d="M202 565.1L241 600L246 595.1Z" fill="#ffffff" stroke="#eee"></path><path d="M246 595.1L241 600L292 600Z" fill="#ffffff" stroke="#eee"></path><path d="M833 226.3L789 167.6L760 228.1Z" fill="#ffffff" stroke="#eee"></path><path d="M714 27.9L684 0L693 51.7Z" fill="#ffffff" stroke="#eee"></path><path d="M699 561.1L675 505.3L667 534.3Z" fill="#ffffff" stroke="#eee"></path><path d="M783 365.7L798 360.9L776 360.7Z" fill="#ffffff" stroke="#eee"></path><path d="M28 173.4L68 199.4L79 198.3Z" fill="#ffffff" stroke="#eee"></path><path d="M79 198.3L68 199.4L72 245.1Z" fill="#ffffff" stroke="#eee"></path><path d="M196 0L142 43.9L179 80.7Z" fill="#ffffff" stroke="#eee"></path><path d="M111 109.6L28 173.4L79 198.3Z" fill="#ffffff" stroke="#eee"></path><path d="M44 381.7L106 376.7L98 326Z" fill="#ffffff" stroke="#eee"></path><path d="M106 376.7L76 398.7L125 405.6Z" fill="#ffffff" stroke="#eee"></path><path d="M44 381.7L98 326L83 310.9Z" fill="#ffffff" stroke="#eee"></path><path d="M40 268L83 310.9L72 245.1Z" fill="#ffffff" stroke="#eee"></path><path d="M697 71.7L705 101.6L757 65.7Z" fill="#ffffff" stroke="#eee"></path><path d="M693 51.7L684 0L660 65.9Z" fill="#ffffff" stroke="#eee"></path><path d="M757 65.7L705 101.6L762 137.4Z" fill="#ffffff" stroke="#eee"></path><path d="M714 27.9L695 0L684 0Z" fill="#ffffff" stroke="#eee"></path><path d="M798 360.9L815 333L776 360.7Z" fill="#ffffff" stroke="#eee"></path><path d="M804 277L833 226.3L760 228.1Z" fill="#ffffff" stroke="#eee"></path><path d="M662 600L699 561.1L644 578.1Z" fill="#ffffff" stroke="#eee"></path><path d="M644 578.1L699 561.1L667 534.3Z" fill="#ffffff" stroke="#eee"></path><path d="M798 360.9L816 353.7L815 333Z" fill="#ffffff" stroke="#eee"></path><path d="M804 118.6L757 65.7L762 137.4Z" fill="#ffffff" stroke="#eee"></path><path d="M714 27.9L746 0L695 0Z" fill="#ffffff" stroke="#eee"></path><path d="M771 487.4L725 421.6L717 443.4Z" fill="#ffffff" stroke="#eee"></path><path d="M738 552.3L762 493.3L675 505.3Z" fill="#ffffff" stroke="#eee"></path><path d="M599 600L662 600L607 587.1Z" fill="#ffffff" stroke="#eee"></path><path d="M196 0L147 10.9L142 43.9Z" fill="#ffffff" stroke="#eee"></path><path d="M142 43.9L63 86.7L111 109.6Z" fill="#ffffff" stroke="#eee"></path><path d="M0 238.1L40 268L0 231.3Z" fill="#ffffff" stroke="#eee"></path><path d="M822 395.6L821 349.9L816 353.7Z" fill="#ffffff" stroke="#eee"></path><path d="M816 353.7L821 349.9L815 333Z" fill="#ffffff" stroke="#eee"></path><path d="M855 279.1L833 226.3L804 277Z" fill="#ffffff" stroke="#eee"></path><path d="M757 65.7L749 42.9L697 71.7Z" fill="#ffffff" stroke="#eee"></path><path d="M115 572.1L180 549.3L160 500.4Z" fill="#ffffff" stroke="#eee"></path><path d="M180 549.3L176 581.1L202 565.1Z" fill="#ffffff" stroke="#eee"></path><path d="M781 504.4L771 487.4L762 493.3Z" fill="#ffffff" stroke="#eee"></path><path d="M762 493.3L771 487.4L717 443.4Z" fill="#ffffff" stroke="#eee"></path><path d="M738 552.3L675 505.3L699 561.1Z" fill="#ffffff" stroke="#eee"></path><path d="M0 341.9L44 381.7L83 310.9Z" fill="#ffffff" stroke="#eee"></path><path d="M76 398.7L62 441.6L125 405.6Z" fill="#ffffff" stroke="#eee"></path><path d="M849 285.1L804 277L815 333Z" fill="#ffffff" stroke="#eee"></path><path d="M789 167.6L804 118.6L762 137.4Z" fill="#ffffff" stroke="#eee"></path><path d="M757 65.7L822 57.7L749 42.9Z" fill="#ffffff" stroke="#eee"></path><path d="M822 147.4L804 118.6L789 167.6Z" fill="#ffffff" stroke="#eee"></path><path d="M44 381.7L62 441.6L76 398.7Z" fill="#ffffff" stroke="#eee"></path><path d="M824 418.6L822 395.6L741 406.6Z" fill="#ffffff" stroke="#eee"></path><path d="M900 330L849 285.1L815 333Z" fill="#ffffff" stroke="#eee"></path><path d="M62 441.6L71 463.4L125 405.6Z" fill="#ffffff" stroke="#eee"></path><path d="M115 572.1L182 600L176 581.1Z" fill="#ffffff" stroke="#eee"></path><path d="M176 581.1L182 600L202 565.1Z" fill="#ffffff" stroke="#eee"></path><path d="M726 600L738 552.3L699 561.1Z" fill="#ffffff" stroke="#eee"></path><path d="M771 487.4L824 418.6L741 406.6Z" fill="#ffffff" stroke="#eee"></path><path d="M833 226.3L822 147.4L789 167.6Z" fill="#ffffff" stroke="#eee"></path><path d="M738 552.3L781 504.4L762 493.3Z" fill="#ffffff" stroke="#eee"></path><path d="M62 441.6L58 455.6L71 463.4Z" fill="#ffffff" stroke="#eee"></path><path d="M66 512.3L95 543.3L160 500.4Z" fill="#ffffff" stroke="#eee"></path><path d="M0 458.6L58 455.6L62 441.6Z" fill="#ffffff" stroke="#eee"></path><path d="M802 484.3L824 418.6L771 487.4Z" fill="#ffffff" stroke="#eee"></path><path d="M855 279.1L900 330L886 267Z" fill="#ffffff" stroke="#eee"></path><path d="M849 285.1L900 330L855 279.1Z" fill="#ffffff" stroke="#eee"></path><path d="M833 226.3L860 156.4L822 147.4Z" fill="#ffffff" stroke="#eee"></path><path d="M855 279.1L846 228.3L833 226.3Z" fill="#ffffff" stroke="#eee"></path><path d="M53 60.7L63 86.7L142 43.9Z" fill="#ffffff" stroke="#eee"></path><path d="M0 231.3L40 268L72 245.1Z" fill="#ffffff" stroke="#eee"></path><path d="M63 86.7L28 173.4L111 109.6Z" fill="#ffffff" stroke="#eee"></path><path d="M40 268L0 341.9L83 310.9Z" fill="#ffffff" stroke="#eee"></path><path d="M822 57.7L757 65.7L804 118.6Z" fill="#ffffff" stroke="#eee"></path><path d="M819 11.9L746 0L749 42.9Z" fill="#ffffff" stroke="#eee"></path><path d="M749 42.9L746 0L714 27.9Z" fill="#ffffff" stroke="#eee"></path><path d="M781 504.4L802 484.3L771 487.4Z" fill="#ffffff" stroke="#eee"></path><path d="M800 536.1L802 484.3L781 504.4Z" fill="#ffffff" stroke="#eee"></path><path d="M849 285.1L855 279.1L804 277Z" fill="#ffffff" stroke="#eee"></path><path d="M815 333L821 349.9L900 330Z" fill="#ffffff" stroke="#eee"></path><path d="M196 0L114 0L147 10.9Z" fill="#ffffff" stroke="#eee"></path><path d="M147 10.9L114 0L142 43.9Z" fill="#ffffff" stroke="#eee"></path><path d="M66 512.3L160 500.4L71 463.4Z" fill="#ffffff" stroke="#eee"></path><path d="M0 480.4L58 487.4L58 455.6Z" fill="#ffffff" stroke="#eee"></path><path d="M58 455.6L58 487.4L71 463.4Z" fill="#ffffff" stroke="#eee"></path><path d="M95 543.3L115 572.1L160 500.4Z" fill="#ffffff" stroke="#eee"></path><path d="M662 600L726 600L699 561.1Z" fill="#ffffff" stroke="#eee"></path><path d="M738 552.3L800 536.1L781 504.4Z" fill="#ffffff" stroke="#eee"></path><path d="M0 238.1L0 264L40 268Z" fill="#ffffff" stroke="#eee"></path><path d="M44 381.7L0 458.6L62 441.6Z" fill="#ffffff" stroke="#eee"></path><path d="M58 487.4L66 512.3L71 463.4Z" fill="#ffffff" stroke="#eee"></path><path d="M95 543.3L68 560.1L115 572.1Z" fill="#ffffff" stroke="#eee"></path><path d="M0 231.3L68 199.4L28 173.4Z" fill="#ffffff" stroke="#eee"></path><path d="M0 231.3L72 245.1L68 199.4Z" fill="#ffffff" stroke="#eee"></path><path d="M0 156.4L0 231.3L28 173.4Z" fill="#ffffff" stroke="#eee"></path><path d="M0 264L0 341.9L40 268Z" fill="#ffffff" stroke="#eee"></path><path d="M7 537.1L68 560.1L66 512.3Z" fill="#ffffff" stroke="#eee"></path><path d="M73 19.9L53 60.7L142 43.9Z" fill="#ffffff" stroke="#eee"></path><path d="M0 120.6L0 156.4L28 173.4Z" fill="#ffffff" stroke="#eee"></path><path d="M0 341.9L0 375.7L44 381.7Z" fill="#ffffff" stroke="#eee"></path><path d="M846 228.3L860 156.4L833 226.3Z" fill="#ffffff" stroke="#eee"></path><path d="M822 147.4L862 128.6L804 118.6Z" fill="#ffffff" stroke="#eee"></path><path d="M900 179.4L860 156.4L846 228.3Z" fill="#ffffff" stroke="#eee"></path><path d="M114 0L73 19.9L142 43.9Z" fill="#ffffff" stroke="#eee"></path><path d="M802 484.3L866 442.4L824 418.6Z" fill="#ffffff" stroke="#eee"></path><path d="M900 330L821 349.9L900 354.9Z" fill="#ffffff" stroke="#eee"></path><path d="M800 600L800 536.1L738 552.3Z" fill="#ffffff" stroke="#eee"></path><path d="M848 67.7L822 57.7L804 118.6Z" fill="#ffffff" stroke="#eee"></path><path d="M15 106.6L63 86.7L9 71.9Z" fill="#ffffff" stroke="#eee"></path><path d="M15 106.6L28 173.4L63 86.7Z" fill="#ffffff" stroke="#eee"></path><path d="M866 442.4L822 395.6L824 418.6Z" fill="#ffffff" stroke="#eee"></path><path d="M855 279.1L886 267L846 228.3Z" fill="#ffffff" stroke="#eee"></path><path d="M0 109.7L15 106.6L9 71.9Z" fill="#ffffff" stroke="#eee"></path><path d="M900 179.3L862 128.6L860 156.4Z" fill="#ffffff" stroke="#eee"></path><path d="M860 156.4L862 128.6L822 147.4Z" fill="#ffffff" stroke="#eee"></path><path d="M7 506.3L66 512.3L58 487.4Z" fill="#ffffff" stroke="#eee"></path><path d="M66 512.3L68 560.1L95 543.3Z" fill="#ffffff" stroke="#eee"></path><path d="M115 572.1L101 600L182 600Z" fill="#ffffff" stroke="#eee"></path><path d="M78 600L101 600L115 572.1Z" fill="#ffffff" stroke="#eee"></path><path d="M870 511.3L866 442.4L802 484.3Z" fill="#ffffff" stroke="#eee"></path><path d="M0 109.7L0 120.6L15 106.6Z" fill="#ffffff" stroke="#eee"></path><path d="M15 106.6L0 120.6L28 173.4Z" fill="#ffffff" stroke="#eee"></path><path d="M9 71.9L63 86.7L53 60.7Z" fill="#ffffff" stroke="#eee"></path><path d="M862 128.6L848 67.7L804 118.6Z" fill="#ffffff" stroke="#eee"></path><path d="M822 57.7L819 11.9L749 42.9Z" fill="#ffffff" stroke="#eee"></path><path d="M900 330L900 248.1L886 267Z" fill="#ffffff" stroke="#eee"></path><path d="M886 267L900 248.1L846 228.3Z" fill="#ffffff" stroke="#eee"></path><path d="M900 99.6L857 59.9L848 67.7Z" fill="#ffffff" stroke="#eee"></path><path d="M0 375.7L0 458.6L44 381.7Z" fill="#ffffff" stroke="#eee"></path><path d="M900 354.9L821 349.9L822 395.6Z" fill="#ffffff" stroke="#eee"></path><path d="M857 59.9L819 11.9L822 57.7Z" fill="#ffffff" stroke="#eee"></path><path d="M900 396.7L900 354.9L822 395.6Z" fill="#ffffff" stroke="#eee"></path><path d="M0 57.9L9 71.9L53 60.7Z" fill="#ffffff" stroke="#eee"></path><path d="M114 0L50 0L73 19.9Z" fill="#ffffff" stroke="#eee"></path><path d="M73 19.9L50 0L53 60.7Z" fill="#ffffff" stroke="#eee"></path><path d="M0 458.6L0 480.4L58 455.6Z" fill="#ffffff" stroke="#eee"></path><path d="M68 560.1L78 600L115 572.1Z" fill="#ffffff" stroke="#eee"></path><path d="M900 248.1L900 179.4L846 228.3Z" fill="#ffffff" stroke="#eee"></path><path d="M900 179.4L900 179.3L860 156.4Z" fill="#ffffff" stroke="#eee"></path><path d="M41 600L78 600L68 560.1Z" fill="#ffffff" stroke="#eee"></path><path d="M900 99.6L848 67.7L862 128.6Z" fill="#ffffff" stroke="#eee"></path><path d="M848 67.7L857 59.9L822 57.7Z" fill="#ffffff" stroke="#eee"></path><path d="M866 442.4L900 396.7L822 395.6Z" fill="#ffffff" stroke="#eee"></path><path d="M900 435.6L900 396.7L866 442.4Z" fill="#ffffff" stroke="#eee"></path><path d="M0 480.4L7 506.3L58 487.4Z" fill="#ffffff" stroke="#eee"></path><path d="M726 600L800 600L738 552.3Z" fill="#ffffff" stroke="#eee"></path><path d="M800 536.1L870 511.3L802 484.3Z" fill="#ffffff" stroke="#eee"></path><path d="M24 0L0 57.9L53 60.7Z" fill="#ffffff" stroke="#eee"></path><path d="M9 71.9L0 57.9L0 109.7Z" fill="#ffffff" stroke="#eee"></path><path d="M800 600L838 558.1L800 536.1Z" fill="#ffffff" stroke="#eee"></path><path d="M865 0L836 0L857 59.9Z" fill="#ffffff" stroke="#eee"></path><path d="M857 59.9L836 0L819 11.9Z" fill="#ffffff" stroke="#eee"></path><path d="M819 11.9L836 0L746 0Z" fill="#ffffff" stroke="#eee"></path><path d="M900 447.4L900 435.6L866 442.4Z" fill="#ffffff" stroke="#eee"></path><path d="M0 480.4L0 517.3L7 506.3Z" fill="#ffffff" stroke="#eee"></path><path d="M7 506.3L7 537.1L66 512.3Z" fill="#ffffff" stroke="#eee"></path><path d="M867 528.1L870 511.3L800 536.1Z" fill="#ffffff" stroke="#eee"></path><path d="M900 504.3L900 447.4L866 442.4Z" fill="#ffffff" stroke="#eee"></path><path d="M50 0L24 0L53 60.7Z" fill="#ffffff" stroke="#eee"></path><path d="M0 517.3L7 537.1L7 506.3Z" fill="#ffffff" stroke="#eee"></path><path d="M900 179.3L900 107.7L862 128.6Z" fill="#ffffff" stroke="#eee"></path><path d="M838 558.1L867 528.1L800 536.1Z" fill="#ffffff" stroke="#eee"></path><path d="M870 511.3L900 504.3L866 442.4Z" fill="#ffffff" stroke="#eee"></path><path d="M900 563.1L867 528.1L838 558.1Z" fill="#ffffff" stroke="#eee"></path><path d="M0 517.3L0 530.1L7 537.1Z" fill="#ffffff" stroke="#eee"></path><path d="M900 107.7L900 99.6L862 128.6Z" fill="#ffffff" stroke="#eee"></path><path d="M7 537.1L41 600L68 560.1Z" fill="#ffffff" stroke="#eee"></path><path d="M0 600L41 600L7 537.1Z" fill="#ffffff" stroke="#eee"></path><path d="M800 600L832 600L838 558.1Z" fill="#ffffff" stroke="#eee"></path><path d="M900 20.9L865 0L857 59.9Z" fill="#ffffff" stroke="#eee"></path><path d="M24 0L0 0L0 57.9Z" fill="#ffffff" stroke="#eee"></path><path d="M900 563.1L900 504.3L867 528.1Z" fill="#ffffff" stroke="#eee"></path><path d="M867 528.1L900 504.3L870 511.3Z" fill="#ffffff" stroke="#eee"></path><path d="M900 99.6L900 20.9L857 59.9Z" fill="#ffffff" stroke="#eee"></path><path d="M0 530.1L0 600L7 537.1Z" fill="#ffffff" stroke="#eee"></path><path d="M900 20.9L900 0L865 0Z" fill="#ffffff" stroke="#eee"></path><path d="M877 600L900 563.1L838 558.1Z" fill="#ffffff" stroke="#eee"></path><path d="M832 600L877 600L838 558.1Z" fill="#ffffff" stroke="#eee"></path><path d="M877 600L900 600L900 563.1Z" fill="#ffffff" stroke="#eee"></path></g></svg>